<?xml version="1.0" standalone="no"?>
<!DOCTYPE svg PUBLIC "-//W3C//DTD SVG 20010904//EN"
 "http://www.w3.org/TR/2001/REC-SVG-20010904/DTD/svg10.dtd">
<svg version="1.0" xmlns="http://www.w3.org/2000/svg"
 width="353.000000pt" height="353.000000pt" viewBox="0 0 353.000000 353.000000"
 preserveAspectRatio="xMidYMid meet">
<metadata>
Created by potrace 1.11, written by Peter Selinger 2001-2013
</metadata>
<g transform="translate(0.000000,353.000000) scale(0.100000,-0.100000)"
fill="#000000" stroke="none">
<path d="M1332 3509 c-109 -28 -205 -98 -260 -190 -45 -76 -64 -247 -38 -354
23 -100 117 -209 218 -254 84 -38 138 -48 239 -45 305 8 484 237 425 544 -12
58 -65 152 -113 197 -47 45 -148 99 -198 107 -16 2 -30 5 -30 6 0 1 -39 3 -86
5 -58 1 -110 -4 -157 -16z m225 -233 c66 -34 99 -105 90 -198 -10 -108 -79
-173 -179 -170 -109 3 -179 89 -172 209 4 84 46 143 118 169 40 15 104 11 143
-10z"/>
<path d="M2950 3518 c-158 -24 -263 -132 -262 -269 0 -64 27 -134 63 -168 35
-33 92 -61 199 -96 103 -35 128 -56 95 -81 -31 -24 -108 -10 -196 34 l-77 39
-59 -101 -60 -101 51 -33 c127 -82 321 -101 451 -44 46 19 55 25 100 70 48 46
65 87 72 164 13 147 -54 223 -249 283 -105 33 -127 47 -112 71 6 10 25 20 43
22 41 4 135 -24 180 -54 l35 -23 48 89 c26 50 48 95 48 100 0 14 -69 56 -126
75 -82 28 -159 35 -244 23z"/>
<path d="M189 3511 c-1 -3 -2 -192 -3 -418 -2 -410 -2 -413 18 -414 80 -3 351
1 399 6 183 20 294 106 350 270 14 40 17 225 4 273 -26 97 -95 185 -180 228
-91 47 -156 57 -379 59 -115 0 -209 -1 -209 -4z m397 -229 c39 -12 83 -54 95
-90 7 -20 12 -62 12 -94 0 -87 -30 -149 -83 -171 -28 -11 -149 -25 -151 -17
-4 14 -5 366 -2 373 5 8 99 8 129 -1z"/>
<path d="M2014 3511 c-7 -8 -4 -831 4 -831 10 -1 488 -1 548 -1 l51 1 -1 108
-1 107 -155 1 c-85 1 -160 2 -165 3 -12 1 -14 75 -2 87 4 4 71 8 150 8 l142 1
1 106 1 106 -136 -1 c-75 -1 -143 2 -152 6 -10 4 -15 19 -14 45 l1 38 159 5
160 5 0 105 0 105 -293 0 c-162 0 -295 -2 -298 -4z"/>
<path d="M203 2570 c-18 -5 -18 -36 -17 -775 1 -424 2 -775 3 -781 2 -17 488
-17 493 0 6 20 1 718 -6 784 -3 34 -2 62 2 62 4 0 20 -24 35 -52 14 -29 41
-80 60 -113 18 -33 56 -103 85 -155 28 -52 105 -194 170 -315 l120 -220 269 0
268 0 1 775 c0 426 -3 780 -7 785 -8 11 -468 13 -485 2 -8 -5 -11 -641 -3
-812 1 -16 1 -34 0 -40 -1 -5 -24 35 -52 90 -28 55 -77 150 -109 210 -31 61
-106 205 -165 320 -59 116 -114 217 -121 225 -12 12 -58 14 -268 15 -140 0
-263 -2 -273 -5z"/>
<path d="M1917 2572 c-18 -4 -18 -28 -15 -540 4 -521 5 -539 27 -611 35 -119
70 -180 146 -257 128 -129 296 -186 550 -185 235 0 414 62 534 184 77 77 139
202 155 313 4 22 9 51 12 64 6 29 6 1019 0 1029 -2 3 -118 6 -258 6 l-253 0
-1 -501 -1 -502 -24 -48 c-33 -67 -90 -99 -175 -98 -102 1 -160 45 -190 144
-4 14 -9 243 -10 510 -1 267 -2 487 -3 490 -1 6 -466 7 -494 2z"/>
<path d="M495 871 c-201 -56 -319 -226 -309 -441 4 -83 8 -105 28 -158 46
-127 173 -228 323 -259 55 -11 169 -9 228 5 55 12 125 44 168 76 19 15 16 26
-45 183 l-20 52 -56 -32 c-52 -29 -65 -32 -142 -32 -74 0 -90 3 -122 25 -119
80 -105 282 24 340 73 32 155 19 280 -48 5 -2 25 52 43 118 1 3 9 29 18 59 9
30 16 55 14 56 -12 11 -98 49 -131 59 -62 19 -230 17 -301 -3z"/>
<path d="M1213 818 c-11 -35 -55 -162 -98 -283 -42 -121 -78 -224 -79 -230 -2
-5 -6 -17 -9 -25 -9 -22 -87 -252 -87 -256 0 -2 65 -4 144 -4 158 0 149 -3
161 60 12 63 6 60 139 60 l122 0 15 -58 15 -57 152 -3 c84 -1 152 0 152 2 0 6
-97 294 -107 316 -3 8 -7 20 -9 25 -1 6 -32 96 -69 200 -36 105 -76 218 -88
253 l-22 62 -155 0 -156 0 -21 -62z m202 -343 c15 -55 28 -104 28 -109 2 -10
-98 -16 -112 -6 -4 3 6 54 22 113 16 59 31 106 32 105 2 -2 15 -48 30 -103z"/>
<path d="M1899 878 c-1 -2 -2 -195 -3 -430 l-2 -428 141 0 141 0 -1 142 c0
126 2 141 17 144 13 2 33 -31 83 -133 36 -74 65 -139 65 -144 0 -5 73 -9 166
-9 l166 0 -20 33 c-71 117 -102 169 -102 172 0 1 -15 28 -34 59 l-34 57 53 52
c41 40 57 64 69 107 54 187 -31 331 -216 368 -43 9 -486 18 -489 10z m397
-224 c36 -17 49 -50 34 -88 -12 -33 -39 -46 -102 -49 l-53 -2 -1 70 c0 39 1
73 3 76 6 13 88 8 119 -7z"/>
<path d="M2718 873 c-3 -5 -4 -197 -4 -428 l1 -420 312 -3 312 -2 -2 112 -2
111 -170 1 -169 1 -1 43 c0 23 2 46 5 50 3 4 73 7 155 7 l150 0 0 110 0 109
-155 1 -155 0 0 45 0 45 156 1 c86 0 160 3 165 7 5 3 9 52 9 109 l-1 103 -301
3 c-166 1 -303 -1 -305 -5z"/>
</g>
</svg>
